# xmcd
#
# Track frame offsets: 
#        150
#        20160
#        40640
#
# Disc length: 873 seconds
#
# Revision: 2
# Processed by: cddbd v1.5.2PL0 Copyright (c) Steve Scherf et al.
# Submitted via: ExactAudioCopy v0.95b4
#
DISCID=1c036703
DTITLE=Carlisle, Belinda - Live Your Live Be Free - Single
DYEAR=1991
DGENRE=Pop
TTITLE0=Live Your Life Be Free
TTITLE1=Loneliness Game
TTITLE2=Live Your Life Be Free (Club Mix)
EXTD=
EXTT0=
EXTT1=
EXTT2=
PLAYORDER=
